<svg width="56" height="56" viewBox="0 0 56 56" fill="none" xmlns="http://www.w3.org/2000/svg">
<circle cx="28" cy="28" r="28" fill="#EDF0F4"/>
<path d="M18.4111 29.9526L19.3679 22.7639L11.0688 17.0027L18.6515 19.5712L20.4423 16.8236L26.9813 12.7662L41.3945 20.707L42.1415 32.823L35.7203 41.7462L30.6447 42.5239L33.2695 37.7195V33.0942L31.361 29.4819L29.4218 28.1976L26.4389 31.2727V34.5268L24.1109 36.7064L21.1535 37.0646L19.8437 37.8065L17.6948 37.1209L16.7994 33.8974L18.4111 31.6308V29.9526Z" fill="white"/>
<path d="M31.6628 16.9413C30.0818 16.6138 28.3524 16.7008 28.3524 16.7008C28.3524 16.7008 27.7845 19.3256 24.2643 20.0163C24.2899 20.0163 28.9152 21.5973 31.6628 16.9413Z" fill="#94A6C3"/>
<path d="M33.0955 40.7587C35.004 39.2647 36.4366 37.2078 37.0966 34.8798C37.1273 34.7928 37.3934 34.6394 37.5725 34.5217C37.8692 34.3426 38.1711 34.1942 38.2274 33.9537C38.3451 33.2681 38.4065 32.5518 38.4065 31.8355C38.4065 31.5694 38.1353 31.2983 37.8692 31.0322C37.6595 30.8531 37.4497 30.6433 37.4497 30.495C37.1529 27.7781 35.8994 25.2403 33.8988 23.3932L33.689 23.603C35.6282 25.4245 36.8817 27.9009 37.1529 30.5257C37.1836 30.7661 37.419 31.0015 37.6595 31.242C37.8692 31.4211 38.1097 31.6922 38.1097 31.8099C38.1097 32.4955 38.0483 33.1811 37.9306 33.8668C37.8999 33.9844 37.6339 34.1072 37.4241 34.2249C37.1273 34.3733 36.8562 34.5217 36.7999 34.7621C36.0836 37.2999 34.4412 39.5103 32.2615 40.9429C32.6504 40.1089 33.8732 37.392 34.5281 36.0157L34.4105 31.6001L30.6191 27.9316L28.4702 28.2283L26.1115 32.0504C26.1115 32.0504 27.2166 33.4523 25.6612 35.0947C24.1416 36.7064 22.9443 37.0646 22.9443 37.0646L21.8391 36.466C22.1666 36.0464 22.8266 35.4222 23.3332 35.0026C24.1979 34.2863 25.0626 34.2249 25.0626 33.4523C25.0984 31.8355 23.3639 32.2806 23.3639 32.2806L22.7345 32.8793L22.4685 35.0896L21.1587 36.732L21.0103 36.7013L18.8613 36.2255C18.8613 36.2255 20.1763 35.5399 20.3861 34.7621C20.5958 34.0151 19.9665 31.5387 19.9358 31.3904C19.9665 31.4211 20.5651 31.9276 20.8312 32.7616C21.307 31.4466 21.9364 30.1931 22.1154 30.0754C22.2945 29.9577 24.7095 28.6735 24.7095 28.6735L23.9062 30.7917L24.5049 30.4643L25.9375 26.9441C25.9375 26.9441 27.3394 26.2585 28.3832 26.2585C30.261 26.2278 33.0392 23.9305 31.7857 19.8116C32.1438 19.96 38.3502 23.0658 39.4247 29.1544C40.228 33.8361 37.5725 38.2209 33.0955 40.7587Z" fill="#94A6C3"/>
<path d="M25.9938 17.5962C26.6794 16.7878 26.4133 15.5956 26.4133 15.5956L24.4128 18.553C24.3821 18.553 25.124 18.5837 25.9938 17.5962Z" fill="#1B314F"/>
<path d="M19.2758 33.744L19.5162 32.5518C19.5162 32.5518 18.5288 34.2812 18.4418 34.5217C18.3497 34.7929 18.5032 35.2687 18.8869 35.238C19.2758 35.2073 19.7516 34.6394 19.7516 34.2249C19.7516 33.6877 19.2758 33.744 19.2758 33.744Z" fill="#1B314F"/>
<path fill-rule="evenodd" clip-rule="evenodd" d="M37.0046 14.7616C37.0046 14.7616 38.4986 14.823 40.0489 15.0021C36.5543 12.2545 33.2439 11.4512 30.5577 11.4512C26.9727 11.4512 24.5073 12.8833 24.2188 13.0509L24.1979 13.0629L25.3645 11.2108C25.3645 11.2108 20.7084 10.7605 19.066 15.6877C18.6465 14.644 18.2627 13.1192 18.2627 13.1192C18.2627 13.1192 15.8426 15.2426 16.9785 18.7628C14.2002 17.7497 10.2349 16.3426 10.0814 16.3171C9.87161 16.2864 9.81021 16.3785 9.81021 16.3785C9.81021 16.3785 9.74881 16.4654 9.92789 16.6189C10.2605 16.8799 16.5282 21.5103 17.9046 22.4057C17.6078 23.4802 17.6078 23.9867 17.9046 24.4933C18.3241 25.1789 18.3497 25.537 18.2934 26.0436C18.232 26.5501 17.6948 30.9401 17.5771 31.4773C17.5293 31.6954 17.2944 32.1394 17.0359 32.628C16.6576 33.3431 16.2287 34.1536 16.2622 34.491C16.3236 35.0589 17.0961 37.4739 17.7869 37.7451C18.2934 37.9242 19.547 38.313 20.381 38.313C20.6777 38.313 20.9489 38.2516 21.0666 38.1339C21.5731 37.6888 21.7215 37.5967 22.0796 37.5967H22.1666C22.2344 37.5967 22.3086 37.6031 22.3892 37.6101C22.485 37.6184 22.5899 37.6274 22.7039 37.6274C23.1797 37.6274 23.809 37.5353 24.2542 37.1209C24.5616 36.8135 24.9749 36.4531 25.364 36.1139L25.3641 36.1138C25.804 35.7303 26.2131 35.3736 26.4031 35.151C26.8534 34.5831 27.0887 33.8105 26.9711 33.0328C26.879 32.3165 27.2678 31.6871 27.7181 31.0629C28.286 30.3159 29.3298 28.9754 29.3298 28.9754C31.3917 30.5205 32.676 32.8793 32.676 35.5041C32.676 40.1601 28.6186 43.9207 23.6044 43.9207C22.8267 43.9207 22.0848 43.8338 21.3378 43.6547C23.6351 44.458 25.5742 44.7292 27.1604 44.7292C30.5322 44.7292 32.3229 43.5063 32.3229 43.5063C32.3229 43.5063 31.6987 44.3147 30.6805 45.2357H30.7112C36.2934 44.458 39.0103 39.8633 39.0103 39.8633C39.0103 39.8633 38.8005 41.3574 38.5344 42.3704C45.7835 36.9199 44.7592 30.1327 44.6783 29.5967L44.6742 29.5689C44.7038 29.6107 44.8918 29.8394 45.1217 30.1191L45.1232 30.1208L45.1235 30.1212L45.1237 30.1215L45.1245 30.1224L45.125 30.1231C45.3726 30.4243 45.6681 30.7836 45.8664 31.0322C47.0637 18.7321 37.0046 14.7616 37.0046 14.7616ZM24.8072 35.1341L24.8071 35.1342C24.7325 35.2019 24.6595 35.2682 24.5918 35.3301C24.4749 35.437 24.3547 35.5439 24.2355 35.6499L24.2355 35.6499C23.9896 35.8686 23.7479 36.0835 23.5481 36.2869C23.4304 36.4045 23.1899 36.4659 22.8318 36.4659H22.5043H22.3252H22.2075H21.9364C22.3866 35.8673 23.6965 34.4961 24.1467 34.1993C24.6839 33.8412 24.9551 33.483 24.6225 32.8588C24.2951 32.2295 23.4304 32.3829 23.4304 32.3829C23.4304 32.3829 23.9369 32.1732 24.3872 32.1732C23.8192 32.0248 23.1029 32.1732 22.7755 32.5006C22.5368 32.7188 22.4845 33.3095 22.4322 33.8988C22.406 34.194 22.3799 34.489 22.3303 34.7366C22.197 35.4355 21.7743 35.8204 21.1255 36.4112C21.0524 36.4778 20.9764 36.5469 20.8977 36.6194C20.4782 37.0083 20.1814 37.126 19.9409 37.126C19.4344 37.039 18.8357 36.8855 18.4162 36.7371C18.1194 36.3483 17.6692 35.064 17.5515 34.5268C17.6147 34.3112 17.821 33.92 17.9979 33.5848C18.0644 33.4587 18.1267 33.3405 18.1757 33.2425L18.2271 33.1443C18.554 32.519 18.7466 32.1506 18.805 31.8099C18.9227 31.3034 19.3116 28.1669 19.46 26.8571C19.8488 27.3636 20.3861 28.2027 20.2633 28.74C21.128 27.5171 20.5037 26.3199 20.2019 25.844C19.9358 25.3682 19.5776 24.4114 19.8744 23.3983C20.1712 22.3852 21.2456 19.5763 21.2456 19.5763C21.2456 19.5763 21.6038 20.2056 22.1103 20.0828C22.6169 19.9651 26.705 13.8151 26.705 13.8151C26.705 13.8151 27.8101 16.2301 26.6436 17.9953C25.4514 19.7554 24.2849 20.0828 24.2849 20.0828C24.2849 20.0828 25.9273 20.3796 27.4469 19.2744C28.0711 20.7377 28.6697 22.2573 28.7004 22.4671C28.6791 22.5158 28.5985 22.7073 28.4859 22.975L28.4855 22.9761L28.4855 22.9761C28.1125 23.863 27.3888 25.5837 27.2985 25.7212C27.2371 25.7826 26.8227 25.9003 26.5208 25.9617C26.0142 26.1101 25.7175 26.2022 25.5947 26.2892C25.3849 26.4682 24.4281 29.093 23.983 30.3773C23.4457 30.5256 22.9085 30.8275 22.5196 31.421C22.7294 31.2727 23.3843 31.1806 23.8653 31.1243C24.2849 31.0936 25.564 31.7792 25.8966 33.0634V33.1248C25.9631 33.5956 25.8147 34.0458 25.5742 34.404C25.4788 34.5243 25.1276 34.8432 24.8072 35.1341ZM23.0266 33.6986C23.0101 33.9878 22.9832 34.4569 22.7703 34.7621C22.8266 34.7007 23.2462 34.2505 23.4611 34.0458C23.5548 33.9602 23.6607 33.893 23.7618 33.8288C23.9809 33.6896 24.1774 33.5649 24.1774 33.2988C24.1774 32.8844 23.6094 32.7923 23.369 32.8537C23.1291 32.9098 23.0725 33.2967 23.0418 33.5069L23.0415 33.5086C23.0349 33.5537 23.0311 33.6194 23.0266 33.6986L23.0266 33.6986ZM34.6765 29.0572C34.9732 27.5376 35.0039 26.2227 34.917 25.1482C36.0784 26.6985 36.7947 28.5814 37.0045 30.5205C37.0352 30.761 37.2706 30.9964 37.511 31.2369C37.7208 31.4159 37.9613 31.6564 37.9613 31.8048C37.9613 32.4904 37.8999 33.176 37.7822 33.8668C37.7515 33.9537 37.4855 34.1072 37.2757 34.2249C36.9789 34.3733 36.7077 34.5217 36.6515 34.7621C35.9965 37.0595 34.5895 39.0907 32.7117 40.5234C35.4849 37.6274 36.8254 32.8486 34.6765 29.0572ZM36.8869 34.8491C36.2319 37.2079 34.7379 39.2954 32.7988 40.7894C36.9176 38.8196 39.7521 34.6087 39.7521 29.7735C39.7521 23.4802 34.9733 18.2869 28.8539 17.6269C28.6492 17.9543 28.4395 18.2511 28.2297 18.4916L28.2328 18.4993C28.6802 19.6102 29.8414 22.4931 29.8414 22.6411C29.8414 22.8202 29.2735 24.2784 29.2121 24.3398C29.1558 24.3705 28.4702 24.4319 28.199 24.4319C27.9022 25.1482 27.6055 25.8338 27.5441 25.9259C27.452 26.0436 27.1859 26.1357 26.618 26.2841C26.5702 26.2978 26.5188 26.3124 26.4659 26.3273C26.1848 26.4069 25.8612 26.4984 25.8096 26.5501C25.6612 26.7292 24.8528 28.8474 24.3155 30.3415C25.0319 30.2187 25.6612 30.3671 25.8096 30.4285C26.9761 28.2181 27.8971 27.026 28.1376 27.026C28.1621 27.0234 28.2136 27.0253 28.2874 27.0281C28.938 27.053 31.3253 27.1441 32.3178 24.7593C33.3761 22.1741 31.8881 19.9662 31.7843 19.8122C31.7828 19.8098 31.7815 19.8079 31.7806 19.8065C31.7815 19.807 31.7831 19.8078 31.7853 19.8088C31.9176 19.8732 34.2358 20.9996 34.8249 24.524C36.1654 26.2278 37.0301 28.2846 37.2706 30.4643C37.2706 30.5744 37.4031 30.7184 37.5321 30.8586C37.5769 30.9072 37.6212 30.9554 37.6595 31.0015C37.9255 31.2676 38.1967 31.5387 38.1967 31.8048C38.1967 32.5211 38.1353 33.2374 38.0176 33.923C37.9613 34.1635 37.6595 34.3426 37.3627 34.491C37.3287 34.5133 37.2915 34.537 37.2534 34.5613C37.091 34.6646 36.9117 34.7787 36.8869 34.8491Z" fill="#1B314F"/>
<path d="M24.8578 24.6723C25.4258 24.0174 25.129 22.7946 24.0801 22.5848C24.3513 21.9606 24.7351 20.707 24.7351 20.707C24.7351 20.707 21.6907 25.4808 21.4247 25.5729C21.1535 25.6649 20.8874 24.6161 20.8874 24.6161C20.3195 26.7957 21.8442 27.0925 22.0233 26.4068C22.8573 26.192 24.2899 25.2966 24.8578 24.6723Z" fill="#1B314F"/>
<path d="M22.2587 25.8338L23.809 23.1783C23.809 23.1783 24.7044 23.6286 24.2541 24.3449C23.6913 25.1789 22.2587 25.8338 22.2587 25.8338Z" fill="#FFD923"/>
<path d="M41.4508 38.134C41.0006 38.7326 40.494 39.3568 39.9005 39.9554C43.7481 32.5518 40.0796 25.7775 39.9312 25.5115C40.2024 25.7827 40.4684 26.0794 40.7089 26.3455C43.6612 29.6252 44.0193 34.5524 41.4508 38.134Z" fill="#D82122"/>
<path d="M45.0324 28.6121C43.6867 24.9998 41.7782 21.9248 37.5724 19.1516C33.515 16.4654 29.1558 16.6752 28.9153 16.7059C28.8846 16.7059 28.8539 16.7059 28.8539 16.7059C29.0023 16.6445 29.1506 16.6138 29.299 16.5882C30.2251 16.2915 31.4173 16.051 32.6145 15.9026C35.7817 15.4472 38.9744 16.5217 41.154 18.8241C41.1847 18.8548 41.1847 18.8548 41.2154 18.8855C43.6918 21.5103 44.9761 24.79 45.0324 28.6121Z" fill="#D82122"/>
<path d="M36.6156 13.8355C32.1693 13.0015 29.3041 13.416 27.2421 14.1937C27.1807 13.9532 26.9709 13.4774 26.7919 13.0885C26.1728 13.8355 25.5127 14.7309 25.0983 15.2989C23.9624 16.0766 23.4866 16.8236 23.4866 16.8236C24.1415 14.5825 26.0551 12.9146 28.3831 12.495C29.038 12.3773 29.7543 12.3159 30.532 12.3159C32.5889 12.3466 34.6457 12.8532 36.6156 13.8355Z" fill="#D82122"/>
<path d="M20.1712 19.5661C16.6817 19.4484 17.8432 15.3859 17.9046 15.1505C17.9046 15.1812 18.1399 18.3432 20.1712 19.5661Z" fill="#D82122"/>
<path d="M23.6043 12.2545C20.9181 13.8662 21.4554 17.7139 21.4554 17.7139C18.8869 13.8099 23.3945 12.3466 23.6043 12.2545Z" fill="#D82122"/>
<path d="M19.1888 20.6405C19.3679 20.7889 19.547 21.0601 19.3372 21.4489C19.2195 21.6587 19.0404 21.628 18.7693 21.5103C18.4111 21.3313 16.2622 20.0777 14.323 18.7935C16.5333 19.5712 18.7693 20.4052 19.1274 20.5842C19.1274 20.5842 19.1581 20.6149 19.1888 20.6405Z" fill="white"/>
</svg>
