<svg width="56" height="56" viewBox="0 0 56 56" fill="none" xmlns="http://www.w3.org/2000/svg">
<g clip-path="url(#clip0_504_105)">
<path d="M28 56C43.464 56 56 43.464 56 28C56 12.536 43.464 0 28 0C12.536 0 0 12.536 0 28C0 43.464 12.536 56 28 56Z" fill="#E84142"/>
<path d="M37.8772 28.7276C38.8472 27.052 40.4126 27.052 41.3827 28.7276L47.4236 39.3323C48.3937 41.0079 47.6 42.3748 45.6598 42.3748H33.4898C31.5717 42.3748 30.7779 41.0079 31.726 39.3323L37.8772 28.7276ZM26.1921 8.31181C27.1622 6.63622 28.7055 6.63622 29.6756 8.31181L31.0205 10.737L34.1953 16.315C34.9669 17.9024 34.9669 19.7764 34.1953 21.3638L23.5465 39.8173C22.5764 41.3165 20.9669 42.2646 19.1811 42.3748H10.3402C8.4 42.3748 7.6063 41.0299 8.57638 39.3323L26.1921 8.31181Z" fill="white"/>
</g>
<defs>
<clipPath id="clip0_504_105">
<rect width="56" height="56" fill="white"/>
</clipPath>
</defs>
</svg>
