<svg width="56" height="56" viewBox="0 0 56 56" fill="none" xmlns="http://www.w3.org/2000/svg">
<g clip-path="url(#clip0_504_55)">
<path d="M28 56C43.464 56 56 43.464 56 28C56 12.536 43.464 0 28 0C12.536 0 0 12.536 0 28C0 43.464 12.536 56 28 56Z" fill="#F0B90B"/>
<path d="M21.3971 25.459L27.9999 18.7768L34.6061 25.4625L38.448 21.5741L27.9999 11L17.5551 21.5707L21.3971 25.459ZM14.8421 24.316L18.6841 28.2043L14.8419 32.0928L11 28.2045L14.8421 24.316ZM21.3971 30.9502L27.9999 37.6322L34.6059 30.9468L38.4501 34.8332L38.448 34.8351L27.9999 45.4092L17.5549 34.8386L17.5496 34.8333L21.3971 30.9502ZM45 28.205L41.158 32.0932L37.3161 28.205L41.158 24.3167L45 28.205Z" fill="white"/>
<path d="M31.8967 28.2026H31.8984L27.9998 24.257L24.0992 28.2045L24.1045 28.21L27.9998 32.1522L31.9003 28.2045L31.8967 28.2026Z" fill="white"/>
</g>
<defs>
<clipPath id="clip0_504_55">
<rect width="56" height="56" fill="white"/>
</clipPath>
</defs>
</svg>
