<svg width="56" height="56" viewBox="0 0 56 56" fill="none" xmlns="http://www.w3.org/2000/svg">
<g clip-path="url(#clip0_504_65)">
<path d="M28 56C43.464 56 56 43.464 56 28C56 12.536 43.464 0 28 0C12.536 0 0 12.536 0 28C0 43.464 12.536 56 28 56Z" fill="#F7931A"/>
<path d="M20.2074 16.0329C21.0336 16.2582 21.8599 16.4085 22.6862 16.6338C23.5125 16.8592 24.3388 17.0094 25.1651 17.2347C25.3905 17.3099 25.4656 17.2347 25.5407 17.0094C25.8412 15.7324 26.1416 14.5305 26.4421 13.2535C26.5172 13.0282 26.5923 12.9531 26.8177 13.0282C27.5689 13.2535 28.2449 13.4038 28.9961 13.554C29.2214 13.6291 29.2214 13.7042 29.1463 13.8545C28.8459 15.0563 28.5454 16.3333 28.2449 17.5352C28.2449 17.6103 28.2449 17.6854 28.1698 17.8357C28.7707 17.9859 29.4468 18.1361 30.0477 18.2864C30.1228 18.2864 30.198 18.1361 30.2731 18.061C30.4984 17.0845 30.7238 16.1831 31.0243 15.2066C31.0994 14.9061 31.1745 14.6056 31.2496 14.3052C31.2496 14.1549 31.3247 14.0798 31.475 14.1549C32.2261 14.3803 32.9773 14.5305 33.8036 14.7559C33.8787 14.7559 33.8787 14.831 33.9538 14.831C33.7285 15.8075 33.5031 16.7089 33.2778 17.6103C33.2027 17.9859 33.1275 18.3615 32.9773 18.7371C32.9022 18.9624 32.9773 19.0376 33.2027 19.1127C34.0289 19.4883 34.8552 19.8638 35.6815 20.2394C36.4327 20.6901 37.1088 21.2911 37.6346 22.0423C38.3106 23.169 38.3858 24.3709 38.0853 25.5728C37.8599 26.3991 37.5595 27.1502 36.9585 27.7512C36.5078 28.2019 35.9069 28.5023 35.3059 28.7277C35.2308 28.7277 35.1557 28.8028 35.0055 28.8028C35.3059 29.0282 35.6064 29.1784 35.9069 29.4038C36.8083 30.0798 37.4092 30.9061 37.7097 31.9577C37.8599 32.784 37.7848 33.6854 37.5595 34.5117C37.259 35.5634 36.8834 36.4648 36.2074 37.2911C35.3811 38.2676 34.3294 38.7934 33.1275 38.9437C31.5501 39.169 30.0477 39.0188 28.5454 38.7934C28.32 38.7183 28.1698 38.7934 28.0947 39.0188C27.7942 40.2207 27.4937 41.4976 27.1933 42.6995C27.1182 43 27.1182 43.0751 26.7426 42.9249C26.0665 42.7746 25.3153 42.5493 24.6393 42.3991C24.4139 42.3239 24.4139 42.2488 24.489 42.0986C24.7895 40.8216 25.09 39.5446 25.4656 38.3427C25.4656 38.1925 25.5407 38.1174 25.3905 38.0423C24.7895 37.892 24.1886 37.7418 23.5125 37.5915C23.3623 38.2676 23.1369 38.9437 22.9867 39.6197C22.8365 40.2958 22.6111 40.9718 22.4609 41.6479C22.3858 41.7981 22.3858 41.8732 22.1604 41.7981C21.4092 41.5728 20.6581 41.4225 19.9069 41.2723C19.6815 41.1972 19.6815 41.1221 19.7567 40.9718C20.0571 39.6948 20.3576 38.4178 20.7332 37.216C20.7332 37.1408 20.8083 37.0657 20.8083 36.9155C19.0806 36.4648 17.3529 36.0141 15.5501 35.5634C15.7003 35.2629 15.7754 35.0376 15.9257 34.7371C16.2261 34.061 16.5266 33.385 16.752 32.784C16.8271 32.5587 16.9022 32.5587 17.1275 32.5587C17.6534 32.7089 18.2543 32.8592 18.7801 32.9343C19.3811 33.0845 19.8318 32.784 19.9069 32.2582C20.8834 28.4272 21.8599 24.5962 22.7613 20.6901C22.9116 20.0892 22.536 19.4131 21.8599 19.1878C21.1839 18.9624 20.5078 18.8122 19.9069 18.662C19.7567 18.662 19.6815 18.5869 19.7567 18.4366C19.982 17.6103 20.2074 16.7089 20.4327 15.8826C20.1322 16.108 20.1322 16.108 20.2074 16.0329ZM24.0383 34.5869C24.1135 34.5869 24.1886 34.662 24.1886 34.662C25.3905 34.9624 26.6674 35.338 27.9444 35.4131C28.8459 35.4883 29.6721 35.4883 30.4984 35.1878C31.9257 34.7371 32.5266 32.8592 31.7003 31.6573C31.3247 31.0563 30.7238 30.6807 30.1228 30.3052C28.7707 29.554 27.1933 29.2535 25.6909 28.9531C25.4656 28.8779 25.4656 28.953 25.3905 29.1784C25.2402 29.9296 25.0149 30.6056 24.8646 31.3568C24.5642 32.4084 24.3388 33.4601 24.0383 34.5869ZM30.3482 26.9249C30.4984 26.9249 30.874 26.8498 31.1745 26.7746C32.6017 26.4742 33.3529 24.8216 32.6017 23.5446C32.2261 22.8685 31.5501 22.4178 30.874 22.1174C29.8224 21.6667 28.7707 21.4413 27.644 21.1408C27.4186 21.0657 27.3435 21.1408 27.2684 21.3662C26.8928 22.9437 26.5172 24.446 26.0665 26.0235C25.9914 26.1737 26.0665 26.2488 26.2167 26.3239C26.5172 26.3991 26.7426 26.4742 27.043 26.5493C28.1698 26.6995 29.1463 26.9249 30.3482 26.9249Z" fill="white"/>
</g>
<defs>
<clipPath id="clip0_504_65">
<rect width="56" height="56" fill="white"/>
</clipPath>
</defs>
</svg>
