<svg width="56" height="56" viewBox="0 0 56 56" fill="none" xmlns="http://www.w3.org/2000/svg">
<circle cx="28" cy="28" r="28" fill="#E7EFF3"/>
<path fill-rule="evenodd" clip-rule="evenodd" d="M11.6667 31.4386C11.6667 38.5599 17.4402 44.3333 24.5615 44.3333C31.6828 44.3333 37.4562 38.5599 37.4562 31.4386C37.4562 24.3172 31.6828 18.5438 24.5615 18.5438C17.4402 18.5438 11.6667 24.3172 11.6667 31.4386ZM34.0177 31.4386C34.0177 36.6618 29.7848 40.8947 24.5615 40.8947C19.3383 40.8947 15.1054 36.6618 15.1054 31.4386C15.1054 26.2153 19.3383 21.9824 24.5615 21.9824C29.7848 21.9824 34.0177 26.2153 34.0177 31.4386Z" fill="#FBCC5C"/>
<path fill-rule="evenodd" clip-rule="evenodd" d="M18.5439 24.5614C18.5439 31.6827 24.3173 37.4561 31.4387 37.4561C38.56 37.4561 44.3334 31.6827 44.3334 24.5614C44.3334 17.44 38.56 11.6666 31.4387 11.6666C24.3173 11.6666 18.5439 17.44 18.5439 24.5614ZM40.8948 24.5613C40.8948 29.7846 36.6619 34.0175 31.4387 34.0175C26.2155 34.0175 21.9825 29.7846 21.9825 24.5613C21.9825 19.3381 26.2155 15.1052 31.4387 15.1052C36.6619 15.1052 40.8948 19.3381 40.8948 24.5613Z" fill="#35D07F"/>
<path fill-rule="evenodd" clip-rule="evenodd" d="M18.5439 24.135C19.6305 23.2409 20.8994 22.6014 22.2611 22.2609C22.6015 20.8958 23.2411 19.627 24.1351 18.5438C22.5602 18.5954 21.0025 18.9358 19.548 19.5479C18.9325 21.0024 18.5921 22.5567 18.5439 24.135ZM33.7391 33.739C33.3987 35.1041 32.7591 36.373 31.8651 37.4561C33.4434 37.408 34.9977 37.0676 36.4522 36.4555C37.0677 34.9975 37.4081 33.4433 37.4563 31.865C36.3697 32.759 35.1008 33.3986 33.7391 33.739Z" fill="#5EA33B"/>
</svg>
