<svg width="56" height="56" viewBox="0 0 56 56" fill="none" xmlns="http://www.w3.org/2000/svg">
<g clip-path="url(#clip0_504_44)">
<path d="M28 56C43.464 56 56 43.464 56 28C56 12.536 43.464 0 28 0C12.536 0 0 12.536 0 28C0 43.464 12.536 56 28 56Z" fill="#627EEA"/>
<path d="M27.9369 10V22.9381L38.8723 27.8245L27.9369 10Z" fill="white" fill-opacity="0.602"/>
<path d="M27.9369 10L17 27.8245L27.9369 22.9381V10Z" fill="white"/>
<path d="M27.9369 36.2088V45L38.8796 29.8608L27.9369 36.2088Z" fill="white" fill-opacity="0.602"/>
<path d="M27.9369 45V36.2073L17 29.8608L27.9369 45Z" fill="white"/>
<path d="M27.9369 34.174L38.8723 27.8246L27.9369 22.941V34.174Z" fill="white" fill-opacity="0.2"/>
<path d="M17 27.8246L27.9369 34.174V22.941L17 27.8246Z" fill="white" fill-opacity="0.602"/>
</g>
<defs>
<clipPath id="clip0_504_44">
<rect width="56" height="56" fill="white"/>
</clipPath>
</defs>
</svg>
