<svg width="56" height="56" viewBox="0 0 56 56" fill="none" xmlns="http://www.w3.org/2000/svg">
<circle cx="28" cy="28" r="28" fill="#13B5EC"/>
<path fill-rule="evenodd" clip-rule="evenodd" d="M30.3333 22.4024L36.6333 18.7089V26.0958L30.3333 22.4024ZM36.6333 38.2315L28.2333 43.1561L19.8333 38.2315V29.6134L28.2333 34.538L36.6333 29.6134V38.2315ZM19.8333 18.7089L26.1333 22.4024L19.8333 26.0958V18.7089ZM29.2833 24.1611L35.5833 27.8546L29.2833 31.5481V24.1611ZM27.1833 31.5481L20.8833 27.8546L27.1833 24.1611V31.5481ZM35.5833 16.9501L28.2333 21.1712L20.8833 16.9501L28.2333 12.5531L35.5833 16.9501ZM17.7333 16.2466V39.2868L28.2333 45.2667L38.7333 39.2868V16.2466L28.2333 10.2667L17.7333 16.2466Z" fill="white"/>
</svg>
