<svg width="58" height="57" viewBox="0 0 58 57" fill="none" xmlns="http://www.w3.org/2000/svg">
<circle cx="29.45" cy="28.5" r="28.5" fill="#6747ED"/>
<path fill-rule="evenodd" clip-rule="evenodd" d="M27.9996 32.2754C23.7933 32.2754 20.4165 28.8954 20.4165 24.6852C20.4165 20.4751 23.7933 17.0951 27.9996 17.0951C32.2058 17.0951 35.5826 20.4751 35.5826 24.6852C35.5826 28.8954 32.2058 32.2754 27.9996 32.2754M27.9996 13.3C34.2793 13.3 39.3742 18.3996 39.3742 24.6852C39.3742 30.9707 34.2793 36.0704 27.9996 36.0704C21.7199 36.0704 16.625 30.9707 16.625 24.6852C16.625 18.3996 21.7199 13.3 27.9996 13.3ZM38.8411 36.6634C39.6112 37.4343 39.6112 38.6202 38.8411 39.3318L31.258 46.9219C30.4878 47.6928 29.303 47.6928 28.5921 46.9219C27.8219 46.151 27.8219 44.9651 28.5921 44.2535L36.1751 36.6634C36.8861 35.8925 38.1302 35.8925 38.8411 36.6634ZM43.225 15.1975C43.225 16.2649 42.3956 17.095 41.3292 17.095C40.2629 17.095 39.4335 16.2649 39.4335 15.1975C39.4335 14.1302 40.2629 13.3 41.3292 13.3C42.3364 13.3 43.225 14.1302 43.225 15.1975Z" fill="white"/>
</svg>
