<svg width="56" height="56" viewBox="0 0 56 56" fill="none" xmlns="http://www.w3.org/2000/svg">
<g clip-path="url(#clip0_504_3488)">
<path d="M28 56C43.464 56 56 43.464 56 28C56 12.536 43.464 0 28 0C12.536 0 0 12.536 0 28C0 43.464 12.536 56 28 56Z" fill="#8247E5"/>
<path d="M36.0818 23.2522C35.5246 22.9318 34.8083 22.9318 34.1716 23.2522L29.7144 25.8961L26.6899 27.5786L22.3123 30.2226C21.7552 30.543 21.0388 30.543 20.4021 30.2226L16.9796 28.1395C16.4225 27.819 16.0245 27.178 16.0245 26.457V22.451C16.0245 21.8101 16.3429 21.1691 16.9796 20.7685L20.4021 18.7656C20.9592 18.4451 21.6756 18.4451 22.3123 18.7656L25.7348 20.8487C26.2919 21.1691 26.6899 21.8101 26.6899 22.5312V25.1751L29.7144 23.4125V20.6884C29.7144 20.0475 29.396 19.4065 28.7593 19.0059L22.3919 15.2404C21.8348 14.9199 21.1184 14.9199 20.4817 15.2404L13.9551 19.0861C13.3184 19.4065 13 20.0475 13 20.6884V28.2196C13 28.8605 13.3184 29.5015 13.9551 29.9021L20.4021 33.6677C20.9592 33.9881 21.6756 33.9881 22.3123 33.6677L26.6899 31.1039L29.7144 29.3412L34.092 26.7774C34.6491 26.457 35.3655 26.457 36.0022 26.7774L39.4247 28.7804C39.9818 29.1009 40.3798 29.7418 40.3798 30.4629V34.4688C40.3798 35.1098 40.0614 35.7507 39.4247 36.1513L36.0818 38.1543C35.5246 38.4748 34.8083 38.4748 34.1716 38.1543L30.7491 36.1513C30.1919 35.8309 29.794 35.1899 29.794 34.4688V31.905L26.7695 33.6677V36.3116C26.7695 36.9525 27.0878 37.5935 27.7246 37.9941L34.1716 41.7596C34.7287 42.0801 35.445 42.0801 36.0818 41.7596L42.5288 37.9941C43.0859 37.6736 43.4839 37.0326 43.4839 36.3116V28.7003C43.4839 28.0593 43.1655 27.4184 42.5288 27.0178L36.0818 23.2522Z" fill="white"/>
</g>
<defs>
<clipPath id="clip0_504_3488">
<rect width="56" height="56" fill="white"/>
</clipPath>
</defs>
</svg>
