<svg width="56" height="56" viewBox="0 0 56 56" fill="none" xmlns="http://www.w3.org/2000/svg">
<path fill-rule="evenodd" clip-rule="evenodd" d="M28 56C12.6 56 0 43.4003 0 27.8606C0.14 12.4609 12.6 -0.138842 28.14 0.00115548C43.54 0.141153 56 12.6009 56 28.2806C55.86 43.5403 43.4 56 28 56" fill="#E42D04"/>
<path fill-rule="evenodd" clip-rule="evenodd" d="M28.5454 48.5333C30.5777 48.5333 35.791 47.6171 40.3858 43.9524C45.6692 39.7383 46.1671 37.388 46.4882 35.8726C46.5161 35.7408 46.5426 35.6152 46.571 35.4952C46.6246 35.2681 46.6559 34.9598 46.6666 34.5933C45.5568 34.4136 44.0013 34.3107 42.186 34.5262C39.2171 34.8786 36.8844 36.9048 36.0892 37.8738C35.6473 35.6714 33.4913 31.2667 28.4018 31.2667C23.3122 31.2667 20.5671 35.6714 19.8308 37.8738C19.3595 37.0515 17.6041 35.2309 14.3524 34.5262C12.3419 34.0905 10.5881 34.3058 9.33331 34.6724C9.43238 36.3101 9.97068 38.0569 11.4034 39.9C13.8687 43.0714 17.6938 45.0298 19.4004 45.9035C19.59 46.0006 19.7535 46.0843 19.886 46.1548C21.2114 46.8595 24.8342 48.5333 28.5454 48.5333Z" fill="white"/>
<path fill-rule="evenodd" clip-rule="evenodd" d="M46.6624 34.5289C45.5532 34.3497 43.9986 34.2471 42.1844 34.462C39.2172 34.8133 36.8859 36.8337 36.0911 37.8C35.6495 35.6039 33.4948 31.2118 28.4081 31.2118C23.3215 31.2118 20.5781 35.6039 19.8421 37.8C19.3711 36.9801 17.6167 35.1647 14.367 34.462C12.3576 34.0275 10.6048 34.2422 9.35078 34.608C9.26049 33.1187 9.53524 31.72 9.83008 30.4212C10.3246 28.2427 11.5668 25.3556 12.1261 24.1843C11.6257 22.9838 10.4659 19.5813 9.83008 15.5757C9.19425 11.5701 10.2716 8.87034 10.8898 8.02119C11.8906 8.28472 14.2809 9.11045 15.8351 10.3051C17.3894 11.4998 19.7796 14.1409 20.7805 15.3122C22.0757 14.9608 25.4079 14.2581 28.3751 14.2581C31.3423 14.2581 34.2035 14.9608 35.2633 15.3122C36.1464 14.2581 38.3188 11.7809 39.9437 10.3051C41.5686 8.82935 44.2118 8.10904 45.3305 7.93335C45.6248 8.314 46.2489 9.42668 46.3902 10.8322C46.5669 12.589 46.037 16.2784 45.3305 18.7381C44.7654 20.7057 44.0352 23.0131 43.741 23.9208C43.8881 24.2429 44.3945 25.2912 45.2422 26.9075C46.1412 28.6215 46.7223 32.4846 46.6624 34.5289Z" fill="#FFAA35"/>
<path d="M32.1708 42.3462C31.9608 42.6272 31.7333 43.1659 31.6458 43.4V43.3122L31.3833 41.2047C30.8875 41.2632 29.5983 41.3803 28.4083 41.3803C27.2183 41.3803 25.8125 41.2632 25.2583 41.2047L25.1708 43.3122C25.1125 43.2244 24.9608 42.9785 24.8208 42.6975C24.6458 42.3462 24.0333 41.8194 24.0333 41.5559C24.0333 41.3452 23.7416 40.8828 23.5958 40.6778L23.3333 40.3266H24.9083L25.2583 40.59C25.55 40.5607 26.2908 40.5373 26.9208 40.6778C27.5508 40.8183 27.9416 40.2681 28.0583 39.9753V38.5704C27.7958 38.3947 27.1483 37.9908 26.6583 37.7801C26.0458 37.5166 25.4333 36.4629 25.6083 35.4092C25.7833 34.3554 26.3083 34.0042 26.6583 34.092C27.0083 34.1798 29.2833 34.0042 29.6333 34.092C29.9833 34.1798 30.5958 34.3554 30.8583 34.7945C31.1208 35.2335 30.9458 36.9898 30.4208 37.6044C30.0008 38.0962 29.1958 38.4532 28.8458 38.5704V39.9753C28.8458 40.151 29.4583 40.59 29.5458 40.6778C29.6333 40.7656 30.9458 40.6778 31.2083 40.6778C31.4183 40.6778 31.5875 40.5022 31.6458 40.4144H33.1333V40.7656C33.1333 40.9413 32.8708 41.7316 32.7833 41.8194C32.6958 41.9072 32.4333 41.995 32.1708 42.3462Z" fill="black"/>
<path d="M29.3555 41.7667L28.4666 42.4667L27.7555 41.7667L27.1333 42.0778L26.6 41.5333H30.3333L29.8 42.1555L29.3555 41.7667Z" fill="black"/>
<path d="M19.7892 27.4077C18.7478 26.9769 17.6196 26.6897 17.1857 26.6C17.07 26.6597 16.8386 26.8513 16.8386 27.1384C16.8386 27.4974 16.7518 27.8564 16.8386 28.5743C16.9253 29.2923 17.6196 29.741 18.8346 30.2795C20.0495 30.8179 22.1323 31.2666 23.6076 31.2666C25.0829 31.2666 23.6944 29.741 23.1737 29.382C22.653 29.0231 21.0909 27.9461 19.7892 27.4077Z" fill="black"/>
<path d="M21.2143 25.0261C20.4361 25.1652 19.3572 25.2 18.915 25.2C18.4728 25.1421 17.5354 24.8695 17.3231 24.2432C17.0578 23.4604 17.7653 22.5905 18.6497 22.1556C19.5341 21.7207 20.6837 21.8947 21.3912 22.9385C22.0987 23.9823 22.1871 24.8521 21.2143 25.0261Z" fill="white"/>
<path d="M37.1441 26.9411C38.1855 26.5103 39.3137 26.2231 39.7476 26.1334C39.8634 26.1931 40.0947 26.3846 40.0947 26.6718C40.0947 27.0308 40.1815 27.3898 40.0947 28.1077C40.0079 28.8257 39.3137 29.2744 38.0987 29.8128C36.8838 30.3513 34.801 30.8 33.3257 30.8C31.8504 30.8 33.2389 29.2744 33.7596 28.9154C34.2803 28.5564 35.8424 27.4795 37.1441 26.9411Z" fill="black"/>
<path d="M34.319 25.0261C35.0972 25.1652 36.1761 25.2 36.6183 25.2C37.0605 25.142 37.9979 24.8695 38.2102 24.2432C38.4755 23.4604 37.768 22.5905 36.8836 22.1556C35.9993 21.7207 34.8496 21.8947 34.1421 22.9385C33.4346 23.9823 33.3462 24.8521 34.319 25.0261Z" fill="white"/>
<path d="M15.1336 18.5147C14.4977 19.2093 13.2788 20.7721 12.7488 21.4667C12.3955 20.7142 11.6183 18.7057 11.3356 16.6915C11.053 14.6772 11.2767 11.569 11.4239 10.2667C11.8067 10.2956 12.9255 10.6139 14.3387 11.6558C15.7519 12.6977 17.8128 14.6367 18.6666 15.476C17.7539 16.1995 15.7695 17.8202 15.1336 18.5147Z" fill="#FF8C30"/>
<path fill-rule="evenodd" clip-rule="evenodd" d="M11.2 11.9205C12.589 12.5001 14.4173 13.3862 15.1836 14.187C15.9609 14.9994 16.6446 16.0747 17.0506 16.8C17.66 16.2947 18.2656 15.8092 18.6666 15.4938C17.8033 14.6516 15.7194 12.706 14.2905 11.6606C12.8616 10.6151 11.7303 10.2957 11.3433 10.2667C11.2971 10.6723 11.2434 11.2526 11.2 11.9205Z" fill="#FF9A32"/>
<path d="M40.3997 18.5147C41.0356 19.2093 42.2545 20.7721 42.7844 21.4667C43.1377 20.7142 43.915 18.7057 44.1977 16.6915C44.4803 14.6772 44.2565 11.569 44.1093 10.2667C43.7265 10.2956 42.6078 10.6139 41.1946 11.6558C39.7814 12.6977 37.7204 14.6367 36.8666 15.476C37.7794 16.1995 39.7637 17.8202 40.3997 18.5147Z" fill="#FF8C30"/>
<path fill-rule="evenodd" clip-rule="evenodd" d="M44.3333 11.9205C42.9442 12.5001 41.1159 13.3862 40.3496 14.187C39.5723 14.9994 38.8886 16.0747 38.4828 16.8C37.8733 16.2947 37.2676 15.8092 36.8666 15.4938C37.7299 14.6516 39.8138 12.706 41.2427 11.6606C42.6716 10.6151 43.8028 10.2957 44.1899 10.2667C44.2361 10.6723 44.2897 11.2526 44.3333 11.9205Z" fill="#FF9A32"/>
</svg>
