<svg width="56" height="56" viewBox="0 0 56 56" fill="none" xmlns="http://www.w3.org/2000/svg">
<g clip-path="url(#clip0_504_79)">
<path d="M28 56C43.464 56 56 43.464 56 28C56 12.536 43.464 0 28 0C12.536 0 0 12.536 0 28C0 43.464 12.536 56 28 56Z" fill="black"/>
<mask id="mask0_504_79" style="mask-type:luminance" maskUnits="userSpaceOnUse" x="14" y="16" width="29" height="24">
<path d="M42.5714 16H14V40H42.5714V16Z" fill="white"/>
</mask>
<g mask="url(#mask0_504_79)">
<path d="M19.1691 34.3008C19.2592 34.206 19.3689 34.1304 19.4913 34.0787C19.6132 34.0275 19.7448 34.0007 19.8779 34.0002L41.6969 34.0175C41.7899 34.0175 41.8809 34.0435 41.9588 34.0922C42.0367 34.141 42.0981 34.2105 42.1356 34.2922C42.1731 34.3738 42.185 34.4642 42.1699 34.5523C42.1549 34.6404 42.1134 34.7224 42.0507 34.7883L37.4041 39.7C37.3143 39.7947 37.2049 39.8704 37.0828 39.9222C36.9608 39.974 36.8288 40.0007 36.6953 40.0006L14.8769 39.9833C14.7841 39.983 14.6933 39.9569 14.6156 39.9081C14.5379 39.8593 14.4766 39.7898 14.4392 39.7083C14.4017 39.6267 14.3897 39.5364 14.4046 39.4484C14.4195 39.3605 14.4607 39.2785 14.5232 39.2125L19.1691 34.3008ZM42.0488 30.2124C42.1115 30.2783 42.1529 30.3603 42.168 30.4484C42.1831 30.5365 42.1711 30.6269 42.1337 30.7086C42.0962 30.7902 42.0347 30.8597 41.9569 30.9085C41.879 30.9572 41.788 30.9832 41.695 30.9832L19.8766 31.0005C19.7432 31.0006 19.6112 30.9739 19.4891 30.9221C19.367 30.8704 19.2576 30.7947 19.1678 30.6999L14.5225 25.7857C14.4601 25.7196 14.4189 25.6375 14.404 25.5494C14.3889 25.4614 14.4007 25.3711 14.4381 25.2895C14.4756 25.2079 14.5369 25.1385 14.6147 25.0898C14.6925 25.0411 14.7833 25.0149 14.8763 25.0143L36.6953 24.9976C36.8288 24.9973 36.9609 25.024 37.083 25.0758C37.2051 25.1275 37.3145 25.2033 37.4041 25.2982L42.0488 30.2124ZM19.1691 16.3006C19.2588 16.2057 19.3682 16.1299 19.4903 16.0781C19.6124 16.0264 19.7444 15.9997 19.8779 16L41.6969 16.0173C41.7899 16.0174 41.8807 16.0434 41.9585 16.0922C42.0363 16.141 42.0977 16.2104 42.1351 16.292C42.1726 16.3734 42.1845 16.4636 42.1695 16.5515C42.1545 16.6393 42.1133 16.7211 42.0507 16.7869L37.4041 21.6986C37.3143 21.7934 37.2049 21.869 37.0828 21.9208C36.9608 21.9726 36.8288 21.9993 36.6953 21.9992L14.8769 21.9819C14.7839 21.9819 14.6929 21.9559 14.6151 21.907C14.5373 21.8581 14.476 21.7885 14.4388 21.7066C14.4016 21.6251 14.3898 21.535 14.4048 21.4472C14.4198 21.3594 14.4609 21.2776 14.5232 21.2117L19.1691 16.3006Z" fill="url(#paint0_linear_504_79)"/>
</g>
</g>
<defs>
<linearGradient id="paint0_linear_504_79" x1="15.241" y1="40.5233" x2="40.2662" y2="14.4557" gradientUnits="userSpaceOnUse">
<stop stop-color="#9945FF"/>
<stop offset="0.2" stop-color="#7962E7"/>
<stop offset="1" stop-color="#00D18C"/>
</linearGradient>
<clipPath id="clip0_504_79">
<rect width="56" height="56" fill="white"/>
</clipPath>
</defs>
</svg>
