<svg width="56" height="56" viewBox="0 0 56 56" fill="none" xmlns="http://www.w3.org/2000/svg">
<path fill-rule="evenodd" clip-rule="evenodd" d="M28 56C12.6 56 0 43.4003 0 27.8606C0.14 12.4609 12.6 -0.138842 28.14 0.00115548C43.54 0.141153 56 12.6009 56 28.2806C55.86 43.5403 43.4 56 28 56" fill="#FC070C"/>
<path fill-rule="evenodd" clip-rule="evenodd" d="M45.3766 19.6141L45.3765 19.614L45.3764 19.6139C44.0797 18.3548 42.7095 17.0245 41.5002 15.9512L41.3777 15.8654C41.1739 15.7017 40.9441 15.5734 40.6979 15.4857L39.7645 15.3115C33.3245 14.1099 12.4501 10.215 12.0207 10.2672C11.8937 10.285 11.7723 10.331 11.6654 10.4019L11.5491 10.4938C11.4058 10.6393 11.2969 10.8152 11.2306 11.0083L11.2 11.0879V11.5228V11.5902C12.6172 15.5365 16.2987 24.3494 19.6979 32.4868L19.6979 32.4868L19.6979 32.4868C22.5718 39.3664 25.2439 45.7631 26.1755 48.3278L26.1759 48.3289C26.2985 48.7089 26.5312 49.4303 26.9657 49.4671H27.0637C27.2964 49.4671 28.2886 48.1563 28.2886 48.1563C28.2886 48.1563 46.0266 26.6454 47.8212 24.3546C48.0535 24.0725 48.2586 23.7689 48.4337 23.4481C48.5246 22.9376 48.3409 22.4167 47.9498 22.0761C47.186 21.3708 46.3004 20.511 45.3775 19.615L45.3768 19.6143L45.3766 19.6141ZM32.8396 24.5813L40.41 18.3032L44.8506 22.3947L32.8396 24.5813ZM16.8656 13.4889L29.8996 24.1709L37.9539 17.3783L16.8656 13.4889ZM31.0756 26.97L44.4158 24.8201L29.1646 43.1951L31.0756 26.97ZM28.8093 26.1921L15.0955 14.5547L26.8248 43.2073L28.8093 26.1921Z" fill="white"/>
</svg>
