<svg width="56" height="56" viewBox="0 0 56 56" fill="none" xmlns="http://www.w3.org/2000/svg">
<path d="M28 56C43.5168 56 56 43.5168 56 28C56 12.4832 43.5168 0 28 0C12.4832 0 0 12.4832 0 28C0 43.5168 12.4832 56 28 56Z" fill="#2775CA"/>
<path d="M35.7 32.4332C35.7 28.35 33.25 26.95 28.35 26.3667C24.85 25.9 24.15 24.9667 24.15 23.3332C24.15 21.6997 25.3168 20.65 27.65 20.65C29.75 20.65 30.9168 21.35 31.5 23.1C31.6168 23.45 31.9668 23.6832 32.3168 23.6832H34.1833C34.65 23.6832 35 23.3332 35 22.8667V22.75C34.5333 20.1832 32.4333 18.2 29.75 17.9667V15.1667C29.75 14.7 29.4 14.35 28.8168 14.2332H27.0668C26.6 14.2332 26.25 14.5832 26.1333 15.1667V17.85C22.6333 18.3167 20.4168 20.65 20.4168 23.5667C20.4168 27.4167 22.75 28.9332 27.65 29.5167C30.9168 30.1 31.9668 30.8 31.9668 32.6667C31.9668 34.5335 30.3333 35.8167 28.1168 35.8167C25.0833 35.8167 24.0333 34.5332 23.6833 32.7832C23.5668 32.3167 23.2168 32.0832 22.8668 32.0832H20.8833C20.4168 32.0832 20.0668 32.4332 20.0668 32.9V33.0167C20.5333 35.9332 22.4 38.0332 26.25 38.6167V41.4167C26.25 41.8832 26.6 42.2332 27.1833 42.35H28.9333C29.4 42.35 29.75 42 29.8668 41.4167V38.6167C33.3668 38.0332 35.7 35.5832 35.7 32.4332V32.4332Z" fill="white"/>
<path fill-rule="evenodd" clip-rule="evenodd" d="M11.6667 22.2832C8.2832 31.2667 12.95 41.4167 22.05 44.6832C22.4 44.9167 22.75 45.3832 22.75 45.7332V47.3667C22.75 47.6 22.75 47.7168 22.6332 47.8332C22.5167 48.3 22.05 48.5332 21.5832 48.3C15.05 46.2 10.0332 41.1832 7.9332 34.65C4.4332 23.5667 10.5 11.7832 21.5832 8.28323C21.7 8.16675 21.9332 8.16675 22.05 8.16675C22.5167 8.28323 22.75 8.63323 22.75 9.09999V10.7332C22.75 11.3167 22.5167 11.6667 22.05 11.9C17.2667 13.65 13.4167 17.3832 11.6667 22.2832ZM33.3668 8.74999C33.4832 8.28323 33.95 8.04999 34.4168 8.28323C40.8332 10.3832 45.9668 15.4 48.0668 22.05C51.5668 33.1332 45.5 44.9167 34.4168 48.4167C34.3 48.5332 34.0668 48.5332 33.95 48.5332C33.4832 48.4167 33.25 48.0667 33.25 47.6V45.9667C33.25 45.3832 33.4832 45.0332 33.95 44.8C38.7332 43.05 42.5832 39.3167 44.3332 34.4167C47.7168 25.4332 43.05 15.2832 33.95 12.0167C33.6 11.7832 33.25 11.3167 33.25 10.85V9.21675C33.25 8.98323 33.25 8.86675 33.3668 8.74999Z" fill="white"/>
</svg>
