<svg width="56" height="56" viewBox="0 0 56 56" fill="none" xmlns="http://www.w3.org/2000/svg">
<path d="M55.156 34.7733C51.4164 49.7735 36.2237 58.9023 21.2217 55.1617C6.22611 51.4221 -2.90269 36.2284 0.838559 21.2295C4.57652 6.22773 19.7692 -2.90175 34.7665 0.837856C49.7674 4.57746 58.8956 19.7728 55.1556 34.7736L55.1559 34.7733H55.156Z" fill="#50AF95"/>
<path fill-rule="evenodd" clip-rule="evenodd" d="M31.5431 31.1744V31.1744C31.3451 31.1892 30.3222 31.2503 28.0404 31.2503C26.2255 31.2503 24.937 31.1958 24.4849 31.1744V31.1744C17.4713 30.8658 12.2362 29.6449 12.2362 28.1831C12.2362 26.7213 17.4713 25.5021 24.4849 25.1886V29.9584C24.9436 29.9914 26.2569 30.0689 28.0717 30.0689C30.2496 30.0689 31.3401 29.9782 31.5365 29.9601V25.1919C38.5353 25.5037 43.7588 26.7246 43.7588 28.1831C43.7588 29.6416 38.5369 30.8625 31.5365 31.1727V31.1727L31.5431 31.1744ZM31.5431 24.6986V20.4303H41.3103V13.9216H14.7176V20.4303H24.4832V24.6969C16.5457 25.0615 10.5764 26.6339 10.5764 28.518C10.5764 30.4022 16.5457 31.9729 24.4832 32.3392V46.0166H31.5414V32.3342C39.4608 31.9696 45.4202 30.3989 45.4202 28.5164C45.4202 26.6339 39.4658 25.0632 31.5414 24.6969V24.6969L31.5431 24.6986Z" fill="white"/>
</svg>
