<svg width="56" height="56" viewBox="0 0 56 56" fill="none" xmlns="http://www.w3.org/2000/svg">
<g clip-path="url(#clip0_504_109)">
<path d="M28 56C43.464 56 56 43.464 56 28C56 12.536 43.464 0 28 0C12.536 0 0 12.536 0 28C0 43.464 12.536 56 28 56Z" fill="black"/>
<path d="M40.7769 12.3166H46.0018L35.1257 23.5933C31.1878 27.6761 24.8037 27.6761 20.8743 23.5933L9.99818 12.3166H15.2231L23.4825 20.8828C25.9799 23.4654 30.0201 23.4654 32.509 20.8828L40.7769 12.3166ZM15.155 43.6834H9.92999L20.8743 32.33C24.8122 28.2472 31.1964 28.2472 35.1343 32.33L46.0785 43.6834H40.8536L32.526 35.0405C30.0286 32.4578 25.9884 32.4578 23.4996 35.0405L15.155 43.6834Z" fill="white"/>
</g>
<defs>
<clipPath id="clip0_504_109">
<rect width="56" height="56" fill="white"/>
</clipPath>
</defs>
</svg>
